<svg width="78" height="78" viewBox="0 0 78 78" fill="none" xmlns="http://www.w3.org/2000/svg">
<path fill-rule="evenodd" clip-rule="evenodd" d="M21.6666 57.2001C24.5384 57.2001 26.8666 54.8719 26.8666 52.0001C26.8666 49.1282 24.5384 46.8001 21.6666 46.8001C18.7947 46.8001 16.4666 49.1282 16.4666 52.0001C16.4666 54.8719 18.7947 57.2001 21.6666 57.2001ZM21.6666 59.2223C25.6553 59.2223 28.8888 55.9888 28.8888 52.0001C28.8888 48.0113 25.6553 44.7778 21.6666 44.7778C17.6778 44.7778 14.4443 48.0113 14.4443 52.0001C14.4443 55.9888 17.6778 59.2223 21.6666 59.2223Z" fill="black"/>
<path fill-rule="evenodd" clip-rule="evenodd" d="M54.8892 57.2001C57.7611 57.2001 60.0892 54.8719 60.0892 52.0001C60.0892 49.1282 57.7611 46.8001 54.8892 46.8001C52.0173 46.8001 49.6892 49.1282 49.6892 52.0001C49.6892 54.8719 52.0173 57.2001 54.8892 57.2001ZM54.8892 59.2223C58.8779 59.2223 62.1114 55.9888 62.1114 52.0001C62.1114 48.0113 58.8779 44.7778 54.8892 44.7778C50.9005 44.7778 47.667 48.0113 47.667 52.0001C47.667 55.9888 50.9005 59.2223 54.8892 59.2223Z" fill="black"/>
<path fill-rule="evenodd" clip-rule="evenodd" d="M30.6943 52.0001C30.6943 51.4018 31.1794 50.9167 31.7777 50.9167H44.0554C44.6538 50.9167 45.1388 51.4018 45.1388 52.0001C45.1388 52.5984 44.6538 53.0834 44.0554 53.0834H31.7777C31.1794 53.0834 30.6943 52.5984 30.6943 52.0001Z" fill="black"/>
<path d="M56.3332 52.0001C56.3332 52.7979 55.6865 53.4446 54.8888 53.4446C54.091 53.4446 53.4443 52.7979 53.4443 52.0001C53.4443 51.2024 54.091 50.5557 54.8888 50.5557C55.6865 50.5557 56.3332 51.2024 56.3332 52.0001Z" fill="black"/>
<path fill-rule="evenodd" clip-rule="evenodd" d="M57.056 51.9999C57.056 53.1965 56.0859 54.1666 54.8893 54.1666C53.6927 54.1666 52.7227 53.1965 52.7227 51.9999C52.7227 50.8033 53.6927 49.8333 54.8893 49.8333C56.0859 49.8333 57.056 50.8033 57.056 51.9999ZM54.8893 53.4444C55.6871 53.4444 56.3338 52.7977 56.3338 51.9999C56.3338 51.2022 55.6871 50.5555 54.8893 50.5555C54.0916 50.5555 53.4449 51.2022 53.4449 51.9999C53.4449 52.7977 54.0916 53.4444 54.8893 53.4444Z" fill="black"/>
<path d="M23.1115 52.0001C23.1115 52.7979 22.4648 53.4446 21.6671 53.4446C20.8694 53.4446 20.2227 52.7979 20.2227 52.0001C20.2227 51.2024 20.8694 50.5557 21.6671 50.5557C22.4648 50.5557 23.1115 51.2024 23.1115 52.0001Z" fill="black"/>
<path fill-rule="evenodd" clip-rule="evenodd" d="M23.8333 51.9999C23.8333 53.1965 22.8633 54.1666 21.6667 54.1666C20.47 54.1666 19.5 53.1965 19.5 51.9999C19.5 50.8033 20.47 49.8333 21.6667 49.8333C22.8633 49.8333 23.8333 50.8033 23.8333 51.9999ZM21.6667 53.4444C22.4644 53.4444 23.1111 52.7977 23.1111 51.9999C23.1111 51.2022 22.4644 50.5555 21.6667 50.5555C20.8689 50.5555 20.2222 51.2022 20.2222 51.9999C20.2222 52.7977 20.8689 53.4444 21.6667 53.4444Z" fill="black"/>
<path fill-rule="evenodd" clip-rule="evenodd" d="M17.416 24.433C16.563 24.6462 15.9021 25.0449 15.3463 25.8788C14.704 26.8421 13.6608 29.2504 12.6591 31.8912C11.6705 34.4976 10.7857 37.1587 10.4403 38.5406C10.2201 39.4216 10.2087 40.5417 10.2745 41.9963C10.2921 42.3848 10.3151 42.7963 10.3392 43.2272C10.4022 44.3547 10.4726 45.6152 10.4726 46.9445C10.4726 48.1732 10.8245 48.76 11.1274 49.0469C11.4479 49.3506 11.876 49.4723 12.2782 49.4723C12.8765 49.4723 13.3615 49.9573 13.3615 50.5556C13.3615 51.1539 12.8765 51.639 12.2782 51.639C11.4768 51.639 10.4603 51.3995 9.63731 50.6198C8.7967 49.8235 8.30598 48.6047 8.30598 46.9445C8.30598 45.6798 8.24086 44.5155 8.1789 43.4076C8.15395 42.9616 8.12952 42.5248 8.11005 42.0942C8.04447 40.6437 8.03313 39.236 8.33832 38.0151C8.71503 36.5081 9.63582 33.7525 10.6333 31.1228C11.6177 28.5275 12.7413 25.8802 13.5435 24.6769C14.432 23.3441 15.5767 22.6595 16.8905 22.331C18.1043 22.0276 19.4823 22.0277 20.8582 22.0278C20.8871 22.0278 20.916 22.0278 20.9449 22.0278H44.056C46.4694 22.0278 48.3892 22.8555 49.3582 24.7934C50.8959 27.8687 51.8404 29.7363 52.6291 30.9612C53.3862 32.1371 53.9352 32.6174 54.6515 32.9755C54.9147 33.1071 55.3703 33.2648 56.0356 33.4565C56.5644 33.6088 57.1733 33.7684 57.8495 33.9457C58.0044 33.9863 58.1629 34.0279 58.3247 34.0704C60.0383 34.5214 62.0836 35.0777 63.9583 35.8275C65.483 36.4374 66.6504 37.075 67.3731 38.1057C68.1055 39.1502 68.2504 40.4097 68.2504 41.889L68.2504 46.9747C68.2508 47.3393 68.2516 48.2475 67.892 49.0865C67.698 49.5391 67.3835 50.0127 66.8765 50.3695C66.3629 50.7309 65.7307 50.9167 65.0004 50.9167C64.4021 50.9167 63.9171 50.4317 63.9171 49.8334C63.9171 49.2351 64.4021 48.7501 65.0004 48.7501C65.3534 48.7501 65.5338 48.665 65.6296 48.5976C65.7319 48.5256 65.8236 48.4124 65.9005 48.233C66.0722 47.8324 66.0838 47.3243 66.0838 46.9445V41.889C66.0838 40.4793 65.9225 39.8109 65.5991 39.3497C65.266 38.8746 64.6278 38.4289 63.1536 37.8392C61.4172 37.1447 59.4903 36.6176 57.7733 36.1658C57.6178 36.1248 57.4636 36.0844 57.3112 36.0445C56.6335 35.8669 55.9922 35.6988 55.4357 35.5384C54.7694 35.3464 54.1417 35.143 53.6826 34.9135C52.5211 34.3327 51.7069 33.5311 50.8074 32.1341C49.9394 30.7861 48.934 28.7897 47.4202 25.7623C46.9448 24.8113 45.9759 24.1945 44.056 24.1945H20.9449C19.4606 24.1945 18.3433 24.2012 17.416 24.433Z" fill="black"/>
<path fill-rule="evenodd" clip-rule="evenodd" d="M19.5368 28.6157C19.4425 28.6504 19.2794 28.7246 19.0214 29.1996C18.3939 30.3545 17.5847 32.4443 16.9077 34.3133C16.8533 34.4637 16.8716 34.5235 16.873 34.528C16.8742 34.5324 16.8873 34.5782 16.9858 34.6516C17.2223 34.828 17.7799 35.0277 18.742 35.0277H44.3035C45.009 35.0277 45.7175 35.0223 46.2467 34.9005C46.4133 34.8622 46.5171 34.8215 46.5767 34.7919C46.557 34.6481 46.491 34.3756 46.3392 33.9576C46.1652 33.4781 45.9189 32.9137 45.6389 32.3228C45.0796 31.1426 44.4207 29.9294 44.0242 29.1996C43.889 28.9508 43.7997 28.8516 43.7386 28.801C43.6882 28.7593 43.602 28.7041 43.388 28.6549C42.8673 28.5351 42.019 28.5277 40.2676 28.5277H20.7601C20.021 28.5277 19.7368 28.5421 19.5368 28.6157ZM20.6609 26.3609C20.6943 26.361 20.7274 26.361 20.7601 26.361H40.2676C40.3264 26.361 40.3846 26.361 40.4422 26.361C41.9644 26.3607 43.0792 26.3605 43.8738 26.5434C44.3323 26.6489 44.7506 26.8258 45.1207 27.1324C45.4799 27.4299 45.7269 27.7951 45.928 28.1653L45.9317 28.172C46.3261 28.8979 47.0102 30.157 47.5968 31.395C47.8907 32.0151 48.1689 32.6482 48.3758 33.2182C48.569 33.7503 48.7502 34.3572 48.7502 34.8729C48.7502 35.5277 48.4623 36.0579 48.0215 36.423C47.6247 36.7517 47.1426 36.9177 46.7325 37.012C45.9384 37.1947 44.9956 37.1945 44.3559 37.1944L18.742 37.1943C17.5735 37.1943 16.4668 36.9673 15.6907 36.3886C15.2849 36.0861 14.9528 35.6723 14.7962 35.1456C14.6397 34.6191 14.6881 34.0792 14.8706 33.5754C15.539 31.7301 16.3997 29.4866 17.1175 28.1653C17.5321 27.4022 18.0417 26.8573 18.7883 26.5825C19.3945 26.3593 20.0759 26.3602 20.6609 26.3609Z" fill="black"/>
<path fill-rule="evenodd" clip-rule="evenodd" d="M29.9723 27.4443V36.8332H27.8057V27.4443H29.9723Z" fill="black"/>
<path fill-rule="evenodd" clip-rule="evenodd" d="M30.6943 40.4444C30.6943 39.8461 31.1794 39.3611 31.7777 39.3611H34.6666C35.2649 39.3611 35.7499 39.8461 35.7499 40.4444C35.7499 41.0427 35.2649 41.5278 34.6666 41.5278H31.7777C31.1794 41.5278 30.6943 41.0427 30.6943 40.4444Z" fill="black"/>
<path fill-rule="evenodd" clip-rule="evenodd" d="M7.58301 59.2222C7.58301 58.6239 8.06803 58.1389 8.66634 58.1389H68.6108C69.2091 58.1389 69.6941 58.6239 69.6941 59.2222C69.6941 59.8206 69.2091 60.3056 68.6108 60.3056H8.66634C8.06803 60.3056 7.58301 59.8206 7.58301 59.2222Z" fill="black"/>
</svg>
