<svg width="45" height="45" viewBox="0 0 45 45" fill="none" xmlns="http://www.w3.org/2000/svg">
<g clip-path="url(#clip0_3001_450)">
<path d="M10.75 37.69C10.47 37.69 10.2 37.53 10.07 37.26C9.89002 36.89 10.06 36.44 10.43 36.26C10.67 36.15 16.21 33.47 14.73 28.61L13.48 25.09C12.45 22.2 12.5 19.04 13.63 16.18C14.09 15.23 14.7 13.52 14.44 12.71L12.31 7.01999C12.16 6.62999 12.36 6.19999 12.75 6.05999C13.14 5.90999 13.57 6.10999 13.71 6.49999L15.85 12.22C16.38 13.9 15.13 16.5 14.99 16.79C14.02 19.25 13.98 22.04 14.88 24.59L16.15 28.15C17.65 33.07 13.48 36.5 11.07 37.63C10.97 37.68 10.86 37.7 10.75 37.7V37.69Z" fill="black"/>
<path d="M13.2701 41.08C13.0301 41.08 12.7901 40.96 12.6501 40.75C12.4201 40.41 12.5101 39.94 12.8601 39.71L16.6301 37.2C17.3401 36.64 18.3501 36.28 19.2501 36C19.6601 35.87 20.1201 35.76 20.6201 35.63C22.8701 35.05 25.6801 34.34 28.0501 31.8C31.6001 27.92 32.2401 25.67 32.9501 21.1C33.5801 17.02 32.2401 13.83 29.0601 11.89C27.3401 10.84 25.4601 10.58 23.4801 11.11L21.9601 11.52C20.4701 11.92 18.9101 11.09 18.4201 9.61998L16.6101 5.02998C16.4601 4.63998 16.6501 4.20998 17.0301 4.05998C17.4201 3.90998 17.8501 4.09998 18.0001 4.47998L19.8301 9.10998C20.0801 9.85998 20.8401 10.27 21.5701 10.07L23.0901 9.65998C25.4801 9.01998 27.7601 9.32998 29.8401 10.61C32.4501 12.2 35.3601 15.36 34.4301 21.33C33.6901 26.11 32.9701 28.64 29.1901 32.77C26.4801 35.68 23.3101 36.49 20.9901 37.08C20.5201 37.2 20.0801 37.31 19.6901 37.43C18.9701 37.65 18.0801 37.96 17.5201 38.4L13.7001 40.95C13.5701 41.03 13.4301 41.08 13.2801 41.08H13.2701Z" fill="black"/>
<path d="M11.9699 25.18C11.7399 25.18 11.5099 25.07 11.3599 24.87C11.1199 24.53 11.1999 24.06 11.5299 23.82L13.9099 22.12C15.0099 21.33 16.4899 21.33 17.5899 22.12L18.5599 22.82C19.1399 23.23 19.9099 23.23 20.4899 22.82L21.4599 22.12C22.5599 21.33 24.0399 21.33 25.1399 22.12L26.1099 22.82C26.6899 23.23 27.4599 23.23 28.0399 22.82L29.0099 22.12C30.1099 21.33 31.5899 21.33 32.6899 22.12L35.0599 23.82C35.3999 24.06 35.4699 24.53 35.2299 24.87C34.9899 25.21 34.5199 25.28 34.1799 25.04L31.8099 23.34C31.2299 22.93 30.4599 22.93 29.8799 23.34L28.9099 24.04C27.8099 24.83 26.3299 24.83 25.2299 24.04L24.2599 23.34C23.6799 22.93 22.9099 22.93 22.3299 23.34L21.3599 24.04C20.2599 24.83 18.7799 24.83 17.6799 24.04L16.7099 23.34C16.1299 22.93 15.3599 22.93 14.7799 23.34L12.4099 25.04C12.2799 25.13 12.1199 25.18 11.9699 25.18Z" fill="black"/>
</g>
<defs>
<clipPath id="clip0_3001_450">
<rect width="25.37" height="37.08" fill="white" transform="translate(10 4)"/>
</clipPath>
</defs>
</svg>
